<svg width="629.8749877929687px" height="232.58499145507812px" xmlns="http://www.w3.org/2000/svg" viewBox="-64.93749389648434 -41.29249572753906 629.8749877929687 232.58499145507812" style="background: rgb(127, 127, 123);" preserveAspectRatio="xMidYMid"><defs><filter id="editing-vintage" x="-100%" y="-100%" width="300%" height="300%"><feConvolveMatrix in="SourceGraphic" result="extrude" order="5,5" divisor="1" kernelMatrix="1,0,0,0,0,0,1,0,0,0,0,0,1,0,0,0,0,0,1,0,0,0,0,0,1"> </feConvolveMatrix><feFlood flood-color="#e7e5e8" result="flood-extrude"></feFlood><feComposite operator="in" in="flood-extrude" in2="extrude" result="extrude-color"></feComposite><feOffset dx="3" dy="3" in="extrude-color" result="extrude-offset"></feOffset><feColorMatrix in="SourceGraphic" result="stroke" type="matrix" values="0 0 0 0 0 0 0 0 0 0 0 0 0 0 0 0 1 0 0 0 "></feColorMatrix><feColorMatrix in="SourceGraphic" result="fill" type="matrix" values="0 0 0 0 0 0 0 0 0 0 0 0 0 0 0 1 0 0 1 0 "></feColorMatrix><feConvolveMatrix in="stroke" result="inner-shadow" order="5,5" divisor="1" kernelMatrix="1 0 0 0 0 0 1 0 0 0 0 0 1 0 0 0 0 0 1 0 0 0 0 0 1 "></feConvolveMatrix><feOffset dx="1" dy="1" in="inner-shadow" result="offset"></feOffset><feComposite operator="in" in="offset" in2="SourceAlpha" result="comp"></feComposite><feFlood flood-color="#fbbc42" result="flood3"></feFlood><feComposite operator="in" in="flood3" in2="comp" result="comp2"></feComposite><feColorMatrix in="comp2" result="comp3" type="matrix" values="1 0 0 0 0 0 1 0 0 0 0 0 1 0 0 0 0 0 0.5 0 "></feColorMatrix><feFlood flood-color="#e76a24" result="flood1"></feFlood><feComposite operator="in" in="flood1" in2="fill" result="fill2"></feComposite><feFlood flood-color="#fff" result="flood2"></feFlood><feComposite operator="in" in="flood2" in2="stroke" result="stroke2"></feComposite><feMerge result="obj"><feMergeNode in="extrude-offset"></feMergeNode><feMergeNode in="fill2"></feMergeNode><feMergeNode in="comp3"></feMergeNode></feMerge><feConvolveMatrix in="SourceAlpha" result="shadow" order="5,5" divisor="1" kernelMatrix="1,0,0,0,0,0,1,0,0,0,0,0,1,0,0,0,0,0,1,0,0,0,0,0,1"></feConvolveMatrix><feOffset dx="9" dy="9" in="shadow" result="shadow-offset"></feOffset><feFlood flood-color="#313030" result="flood-shadow"></feFlood><feComposite operator="in" in="flood-shadow" in2="shadow-offset" result="shadow-color"></feComposite><feMerge><feMergeNode in="shadow-color"></feMergeNode><feMergeNode in="obj"></feMergeNode></feMerge></filter></defs><g transform="translate(-5,-5)"><g filter="url(#editing-vintage)"><g transform="translate(25.656875133514404, 125.25)"><path d="M72.23-27.74L72.23-27.74L72.23-27.74Q75.71-25.19 75.71-19.77L75.71-19.77L75.71-19.77Q75.71-14.34 73.37-10.52L73.37-10.52L73.37-10.52Q71.02-6.70 66.46-3.75L66.46-3.75L66.46-3.75Q56.68 2.55 39.60 2.55L39.60 2.55L39.60 2.55Q22.51 2.55 13.20-6.37L13.20-6.37L13.20-6.37Q3.89-15.28 3.89-31.09L3.89-31.09L3.89-31.09Q3.89-53.47 15.54-70.48L15.54-70.48L15.54-70.48Q24.39-83.08 40.20-88.44L40.20-88.44L40.20-88.44Q48.37-91.12 56.41-91.12L56.41-91.12L56.41-91.12Q64.45-91.12 69.41-90.05L69.41-90.05L69.41-90.05Q74.37-88.98 78.12-86.83L78.12-86.83L78.12-86.83Q86.30-82.14 86.30-74.64L86.30-74.64L86.30-74.64Q86.30-67.80 79.86-62.71L79.86-62.71L79.86-62.71Q73.97-58.16 69.14-58.16L69.14-58.16L69.14-58.16Q64.32-58.16 62.31-58.83L62.31-58.83L62.31-58.83Q62.85-63.65 62.85-66.80L62.85-66.80L62.85-66.80Q62.85-69.95 62.71-72.23L62.71-72.23L62.71-72.23Q62.58-74.50 61.91-76.65L61.91-76.65L61.91-76.65Q60.57-81.61 56.48-81.61L56.48-81.61L56.48-81.61Q52.39-81.61 48.31-77.79L48.31-77.79L48.31-77.79Q44.22-73.97 40.74-67.54L40.74-67.54L40.74-67.54Q32.83-52.93 32.83-35.64L32.83-35.64L32.83-35.64Q32.83-27.34 37.52-22.58L37.52-22.58L37.52-22.58Q42.21-17.82 52.26-17.82L52.26-17.82L52.26-17.82Q59.76-17.82 66.87-22.78L66.87-22.78L66.87-22.78Q69.95-24.92 72.23-27.74ZM116.04 2.68L116.04 2.68L116.04 2.68Q86.56 2.68 86.56-25.06L86.56-25.06L86.56-25.06Q86.56-44.76 97.42-57.49L97.42-57.49L97.42-57.49Q108.94-71.02 128.91-71.02L128.91-71.02L128.91-71.02Q143.38-71.02 150.75-64.32L150.75-64.32L150.75-64.32Q158.12-57.62 158.12-43.55L158.12-43.55L158.12-43.55Q158.12-22.11 146.60-9.65L146.60-9.65L146.60-9.65Q135.34 2.68 116.04 2.68ZM119.53-55.61L119.53-55.61L119.53-55.61Q117.92-51.99 116.65-46.57L116.65-46.57L116.65-46.57Q115.37-41.14 113.77-32.56L113.77-32.56L113.77-32.56Q112.16-23.99 112.16-13.40L112.16-13.40L112.16-13.40Q112.16-9.92 113.30-7.64L113.30-7.64L113.30-7.64Q114.44-5.36 117.52-5.36L117.52-5.36L117.52-5.36Q120.60-5.36 122.54-6.83L122.54-6.83L122.54-6.83Q124.49-8.31 125.96-11.79L125.96-11.79L125.96-11.79Q128.64-17.96 130.78-29.41L130.78-29.41L130.78-29.41Q132.93-40.87 133.13-45.83L133.13-45.83L133.13-45.83Q133.33-50.79 133.33-54.47L133.33-54.47L133.33-54.47Q133.33-58.16 132.26-60.57L132.26-60.57L132.26-60.57Q131.19-62.98 128.17-62.98L128.17-62.98L128.17-62.98Q125.16-62.98 123.15-61.10L123.15-61.10L123.15-61.10Q121.14-59.23 119.53-55.61ZM198.19-7.37L198.19-7.37L198.19-7.37Q194.03 2.68 180.77 2.68L180.77 2.68L180.77 2.68Q173.93 2.68 169.64-2.01L169.64-2.01L169.64-2.01Q166.03-6.16 166.03-10.32L166.03-10.32L166.03-10.32Q166.03-21.17 170.98-42.34L170.98-42.34L175.94-68.34L203.14-71.02L194.97-28.68L194.97-28.68Q192.69-18.76 192.69-15.28L192.69-15.28L192.69-15.28Q192.69-7.64 198.19-7.37ZM178.35-86.97L178.35-86.97L178.35-86.97Q178.35-92.19 182.71-95.01L182.71-95.01L182.71-95.01Q187.06-97.82 193.36-97.82L193.36-97.82L193.36-97.82Q199.66-97.82 203.48-95.01L203.48-95.01L203.48-95.01Q207.30-92.19 207.30-86.97L207.30-86.97L207.30-86.97Q207.30-81.74 203.08-79.06L203.08-79.06L203.08-79.06Q198.86-76.38 192.56-76.38L192.56-76.38L192.56-76.38Q186.26-76.38 182.31-79.06L182.31-79.06L182.31-79.06Q178.35-81.74 178.35-86.97ZM266.26 2.68L266.26 2.68L266.26 2.68Q250.04 2.68 250.04-9.92L250.04-9.92L250.04-9.92Q250.18-13.40 251.25-19.30L251.25-19.30L253.66-31.62L253.66-31.62Q257.28-49.04 257.28-52.93L257.28-52.93L257.28-52.93Q257.28-60.70 252.72-60.70L252.72-60.70L252.72-60.70Q245.09-60.70 241.07-40.74L241.07-40.74L233.16 0L206.23 2.68L220.16-68.47L242.14-71.02L239.99-57.89L239.99-57.89Q246.29-71.02 265.59-71.02L265.59-71.02L265.59-71.02Q274.97-71.02 278.92-67.07L278.92-67.07L278.92-67.07Q282.87-63.11 282.87-54.27L282.87-54.27L282.87-54.27Q282.87-45.96 278.59-26.53L278.59-26.53L278.59-26.53Q276.58-17.82 276.58-14.54L276.58-14.54L276.58-14.54Q276.58-11.26 278.38-9.38L278.38-9.38L278.38-9.38Q280.19-7.50 282.87-7.24L282.87-7.24L282.87-7.24Q281.53-2.68 276.91 0L276.91 0L276.91 0Q272.29 2.68 266.26 2.68ZM347.86-22.65L347.86-22.65L347.86-22.65Q351.21-20.37 351.21-15.34L351.21-15.34L351.21-15.34Q351.21-10.32 348.67-7.10L348.67-7.10L348.67-7.10Q346.12-3.89 341.97-1.74L341.97-1.74L341.97-1.74Q333.39 2.68 324.15 2.68L324.15 2.68L324.15 2.68Q314.90 2.68 309.47 0.67L309.47 0.67L309.47 0.67Q304.05-1.34 300.43-5.09L300.43-5.09L300.43-5.09Q293.33-12.19 293.33-25.19L293.33-25.19L293.33-25.19Q293.33-45.43 304.31-57.75L304.31-57.75L304.31-57.75Q316.11-71.02 336.61-71.02L336.61-71.02L336.61-71.02Q349.34-71.02 355.64-65.66L355.64-65.66L355.64-65.66Q360.33-61.64 360.33-55.07L360.33-55.07L360.33-55.07Q360.33-31.49 319.59-31.49L319.59-31.49L319.59-31.49Q319.05-28.01 319.05-25.06L319.05-25.06L319.05-25.06Q319.05-18.89 321.80-16.55L321.80-16.55L321.80-16.55Q324.55-14.20 329.64-14.20L329.64-14.20L329.64-14.20Q334.73-14.20 340.16-16.55L340.16-16.55L340.16-16.55Q345.59-18.89 347.86-22.65ZM320.53-37.25L320.53-37.25L320.53-37.25Q330.04-37.25 335.54-43.15L335.54-43.15L335.54-43.15Q341.03-48.78 341.03-57.75L341.03-57.75L341.03-57.75Q341.03-60.84 339.89-62.51L339.89-62.51L339.89-62.51Q338.75-64.19 336.47-64.19L336.47-64.19L336.47-64.19Q334.20-64.19 332.25-63.32L332.25-63.32L332.25-63.32Q330.31-62.44 328.30-59.50L328.30-59.50L328.30-59.50Q323.34-52.80 320.53-37.25ZM407.09-71.02L407.09-71.02L407.09-71.02Q411.92-71.02 415.67-69.95L415.67-69.95L415.67-69.95Q415.80-70.48 416.07-71.96L416.07-71.96L416.74-76.11L416.74-76.11Q417.28-78.79 418.08-83.21L418.08-83.21L420.22-93.80L446.89-96.48L432.02-18.76L432.02-18.76Q431.88-17.96 431.88-16.62L431.88-16.62L431.88-14.47L431.88-14.47Q431.88-11.52 433.36-9.31L433.36-9.31L433.36-9.31Q434.83-7.10 437.24-7.10L437.24-7.10L437.24-7.10Q434.56-0.80 426.39 1.88L426.39 1.88L426.39 1.88Q423.57 2.68 419.62 2.68L419.62 2.68L419.62 2.68Q415.67 2.68 412.05 0.60L412.05 0.60L412.05 0.60Q408.43-1.47 407.36-4.96L407.36-4.96L407.36-4.96Q405.22-1.47 400.93 0.60L400.93 0.60L400.93 0.60Q396.64 2.68 390.41 2.68L390.41 2.68L390.41 2.68Q384.18 2.68 379.02 1.07L379.02 1.07L379.02 1.07Q373.86-0.54 370.64-4.02L370.64-4.02L370.64-4.02Q364.75-10.85 364.75-26.40L364.75-26.40L364.75-26.40Q364.75-46.50 376.54-58.69L376.54-58.69L376.54-58.69Q388.33-71.02 407.09-71.02ZM406.15-62.98L406.15-62.98L406.15-62.98Q401.20-62.98 398.52-57.62L398.52-57.62L398.52-57.62Q395.84-52.26 393.09-38.99L393.09-38.99L393.09-38.99Q390.34-25.73 390.34-13.80L390.34-13.80L390.34-13.80Q390.34-5.63 395.17-5.63L395.17-5.63L395.17-5.63Q399.45-5.63 402.47-9.92L402.47-9.92L402.47-9.92Q405.48-14.20 406.69-21.31L406.69-21.31L413.93-60.57L413.93-60.57Q411.11-62.98 406.15-62.98Z" fill="#f00" stroke="#0f0" stroke-width="1.8"></path></g></g><g><g transform="translate(25.016250133514404, 125.25)"><path d="M72.23-27.74L72.23-27.74L72.23-27.74Q75.71-25.19 75.71-19.77L75.71-19.77L75.71-19.77Q75.71-14.34 73.37-10.52L73.37-10.52L73.37-10.52Q71.02-6.70 66.46-3.75L66.46-3.75L66.46-3.75Q56.68 2.55 39.60 2.55L39.60 2.55L39.60 2.55Q22.51 2.55 13.20-6.37L13.20-6.37L13.20-6.37Q3.89-15.28 3.89-31.09L3.89-31.09L3.89-31.09Q3.89-53.47 15.54-70.48L15.54-70.48L15.54-70.48Q24.39-83.08 40.20-88.44L40.20-88.44L40.20-88.44Q48.37-91.12 56.41-91.12L56.41-91.12L56.41-91.12Q64.45-91.12 69.41-90.05L69.41-90.05L69.41-90.05Q74.37-88.98 78.12-86.83L78.12-86.83L78.12-86.83Q86.30-82.14 86.30-74.64L86.30-74.64L86.30-74.64Q86.30-67.80 79.86-62.71L79.86-62.71L79.86-62.71Q73.97-58.16 69.14-58.16L69.14-58.16L69.14-58.16Q64.32-58.16 62.31-58.83L62.31-58.83L62.31-58.83Q62.85-63.65 62.85-66.80L62.85-66.80L62.85-66.80Q62.85-69.95 62.71-72.23L62.71-72.23L62.71-72.23Q62.58-74.50 61.91-76.65L61.91-76.65L61.91-76.65Q60.57-81.61 56.48-81.61L56.48-81.61L56.48-81.61Q52.39-81.61 48.31-77.79L48.31-77.79L48.31-77.79Q44.22-73.97 40.74-67.54L40.74-67.54L40.74-67.54Q32.83-52.93 32.83-35.64L32.83-35.64L32.83-35.64Q32.83-27.34 37.52-22.58L37.52-22.58L37.52-22.58Q42.21-17.82 52.26-17.82L52.26-17.82L52.26-17.82Q59.76-17.82 66.87-22.78L66.87-22.78L66.87-22.78Q69.95-24.92 72.23-27.74ZM116.04 2.68L116.04 2.68L116.04 2.68Q86.56 2.68 86.56-25.06L86.56-25.06L86.56-25.06Q86.56-44.76 97.42-57.49L97.42-57.49L97.42-57.49Q108.94-71.02 128.91-71.02L128.91-71.02L128.91-71.02Q143.38-71.02 150.75-64.32L150.75-64.32L150.75-64.32Q158.12-57.62 158.12-43.55L158.12-43.55L158.12-43.55Q158.12-22.11 146.60-9.65L146.60-9.65L146.60-9.65Q135.34 2.68 116.04 2.68ZM119.53-55.61L119.53-55.61L119.53-55.61Q117.92-51.99 116.65-46.57L116.65-46.57L116.65-46.57Q115.37-41.14 113.77-32.56L113.77-32.56L113.77-32.56Q112.16-23.99 112.16-13.40L112.16-13.40L112.16-13.40Q112.16-9.92 113.30-7.64L113.30-7.64L113.30-7.64Q114.44-5.36 117.52-5.36L117.52-5.36L117.52-5.36Q120.60-5.36 122.54-6.83L122.54-6.83L122.54-6.83Q124.49-8.31 125.96-11.79L125.96-11.79L125.96-11.79Q128.64-17.96 130.78-29.41L130.78-29.41L130.78-29.41Q132.93-40.87 133.13-45.83L133.13-45.83L133.13-45.83Q133.33-50.79 133.33-54.47L133.33-54.47L133.33-54.47Q133.33-58.16 132.26-60.57L132.26-60.57L132.26-60.57Q131.19-62.98 128.17-62.98L128.17-62.98L128.17-62.98Q125.16-62.98 123.15-61.10L123.15-61.10L123.15-61.10Q121.14-59.23 119.53-55.61ZM198.19-7.37L198.19-7.37L198.19-7.37Q194.03 2.68 180.77 2.68L180.77 2.68L180.77 2.68Q173.93 2.68 169.64-2.01L169.64-2.01L169.64-2.01Q166.03-6.16 166.03-10.32L166.03-10.32L166.03-10.32Q166.03-21.17 170.98-42.34L170.98-42.34L175.94-68.34L203.14-71.02L194.97-28.68L194.97-28.68Q192.69-18.76 192.69-15.28L192.69-15.28L192.69-15.28Q192.69-7.64 198.19-7.37ZM178.35-86.97L178.35-86.97L178.35-86.97Q178.35-92.19 182.71-95.01L182.71-95.01L182.71-95.01Q187.06-97.82 193.36-97.82L193.36-97.82L193.36-97.82Q199.66-97.82 203.48-95.01L203.48-95.01L203.48-95.01Q207.30-92.19 207.30-86.97L207.30-86.97L207.30-86.97Q207.30-81.74 203.08-79.06L203.08-79.06L203.08-79.06Q198.86-76.38 192.56-76.38L192.56-76.38L192.56-76.38Q186.26-76.38 182.31-79.06L182.31-79.06L182.31-79.06Q178.35-81.74 178.35-86.97ZM266.26 2.68L266.26 2.68L266.26 2.68Q250.04 2.68 250.04-9.92L250.04-9.92L250.04-9.92Q250.18-13.40 251.25-19.30L251.25-19.30L253.66-31.62L253.66-31.62Q257.28-49.04 257.28-52.93L257.28-52.93L257.28-52.93Q257.28-60.70 252.72-60.70L252.72-60.70L252.72-60.70Q245.09-60.70 241.07-40.74L241.07-40.74L233.16 0L206.23 2.68L220.16-68.47L242.14-71.02L239.99-57.89L239.99-57.89Q246.29-71.02 265.59-71.02L265.59-71.02L265.59-71.02Q274.97-71.02 278.92-67.07L278.92-67.07L278.92-67.07Q282.87-63.11 282.87-54.27L282.87-54.27L282.87-54.27Q282.87-45.96 278.59-26.53L278.59-26.53L278.59-26.53Q276.58-17.82 276.58-14.54L276.58-14.54L276.58-14.54Q276.58-11.26 278.38-9.38L278.38-9.38L278.38-9.38Q280.19-7.50 282.87-7.24L282.87-7.24L282.87-7.24Q281.53-2.68 276.91 0L276.91 0L276.91 0Q272.29 2.68 266.26 2.68ZM347.86-22.65L347.86-22.65L347.86-22.65Q351.21-20.37 351.21-15.34L351.21-15.34L351.21-15.34Q351.21-10.32 348.67-7.10L348.67-7.10L348.67-7.10Q346.12-3.89 341.97-1.74L341.97-1.74L341.97-1.74Q333.39 2.68 324.15 2.68L324.15 2.68L324.15 2.68Q314.90 2.68 309.47 0.67L309.47 0.67L309.47 0.67Q304.05-1.34 300.43-5.09L300.43-5.09L300.43-5.09Q293.33-12.19 293.33-25.19L293.33-25.19L293.33-25.19Q293.33-45.43 304.31-57.75L304.31-57.75L304.31-57.75Q316.11-71.02 336.61-71.02L336.61-71.02L336.61-71.02Q349.34-71.02 355.64-65.66L355.64-65.66L355.64-65.66Q360.33-61.64 360.33-55.07L360.33-55.07L360.33-55.07Q360.33-31.49 319.59-31.49L319.59-31.49L319.59-31.49Q319.05-28.01 319.05-25.06L319.05-25.06L319.05-25.06Q319.05-18.89 321.80-16.55L321.80-16.55L321.80-16.55Q324.55-14.20 329.64-14.20L329.64-14.20L329.64-14.20Q334.73-14.20 340.16-16.55L340.16-16.55L340.16-16.55Q345.59-18.89 347.86-22.65ZM320.53-37.25L320.53-37.25L320.53-37.25Q330.04-37.25 335.54-43.15L335.54-43.15L335.54-43.15Q341.03-48.78 341.03-57.75L341.03-57.75L341.03-57.75Q341.03-60.84 339.89-62.51L339.89-62.51L339.89-62.51Q338.75-64.19 336.47-64.19L336.47-64.19L336.47-64.19Q334.20-64.19 332.25-63.32L332.25-63.32L332.25-63.32Q330.31-62.44 328.30-59.50L328.30-59.50L328.30-59.50Q323.34-52.80 320.53-37.25ZM407.09-71.02L407.09-71.02L407.09-71.02Q411.92-71.02 415.67-69.95L415.67-69.95L415.67-69.95Q415.80-70.48 416.07-71.96L416.07-71.96L416.74-76.11L416.74-76.11Q417.28-78.79 418.08-83.21L418.08-83.21L420.22-93.80L446.89-96.48L432.02-18.76L432.02-18.76Q431.88-17.96 431.88-16.62L431.88-16.62L431.88-14.47L431.88-14.47Q431.88-11.52 433.36-9.31L433.36-9.31L433.36-9.31Q434.83-7.10 437.24-7.10L437.24-7.10L437.24-7.10Q434.56-0.80 426.39 1.88L426.39 1.88L426.39 1.88Q423.57 2.68 419.62 2.68L419.62 2.68L419.62 2.68Q415.67 2.68 412.05 0.60L412.05 0.60L412.05 0.60Q408.43-1.47 407.36-4.96L407.36-4.96L407.36-4.96Q405.22-1.47 400.93 0.60L400.93 0.60L400.93 0.60Q396.64 2.68 390.41 2.68L390.41 2.68L390.41 2.68Q384.18 2.68 379.02 1.07L379.02 1.07L379.02 1.07Q373.86-0.54 370.64-4.02L370.64-4.02L370.64-4.02Q364.75-10.85 364.75-26.40L364.75-26.40L364.75-26.40Q364.75-46.50 376.54-58.69L376.54-58.69L376.54-58.69Q388.33-71.02 407.09-71.02ZM406.15-62.98L406.15-62.98L406.15-62.98Q401.20-62.98 398.52-57.62L398.52-57.62L398.52-57.62Q395.84-52.26 393.09-38.99L393.09-38.99L393.09-38.99Q390.34-25.73 390.34-13.80L390.34-13.80L390.34-13.80Q390.34-5.63 395.17-5.63L395.17-5.63L395.17-5.63Q399.45-5.63 402.47-9.92L402.47-9.92L402.47-9.92Q405.48-14.20 406.69-21.31L406.69-21.31L413.93-60.57L413.93-60.57Q411.11-62.98 406.15-62.98Z" fill="none" stroke="#01080a" stroke-width="2.1"></path></g></g></g><style>text {
  font-size: 64px;
  font-family: Arial Black;
  dominant-baseline: central;
  text-anchor: middle;
}</style></svg>