<svg data-v-fde0c5aa="" xmlns="http://www.w3.org/2000/svg" viewBox="100 50 100 200" class="iconLeft"><!----><defs data-v-fde0c5aa=""><!----></defs><rect data-v-fde0c5aa="" fill="#F1DEDA" x="0" y="0" width="300px" height="300px" class="logo-background-square"></rect><defs data-v-fde0c5aa=""><!----></defs><g data-v-fde0c5aa="" id="7fedb4c7-6c74-4146-8572-460e30dbb8e9" fill="#250A05" transform="matrix(3.2271452952655975,0,0,3.2271452952655975,94.77015245734661,133.07362233388517)"><path d="M4.19 3.05L4.19 3.05L4.19 3.05Q4.62 3.05 5.05 3.10L5.05 3.10L5.05 3.10Q5.49 3.15 5.85 3.21L5.85 3.21L5.85 3.21Q6.27 3.28 6.66 3.36L6.66 3.36L6.66 5.31L6.66 5.31Q6.36 5.26 5.96 5.19L5.96 5.19L5.96 5.19Q5.57 5.12 5.17 5.10L5.17 5.10L5.17 5.10Q4.77 5.07 4.40 5.11L4.40 5.11L4.40 5.11Q4.02 5.15 3.72 5.35L3.72 5.35L3.72 5.35Q3.43 5.54 3.25 5.91L3.25 5.91L3.25 5.91Q3.07 6.27 3.07 6.89L3.07 6.89L3.07 6.89Q3.07 7.53 3.24 7.92L3.24 7.92L3.24 7.92Q3.42 8.32 3.70 8.52L3.70 8.52L3.70 8.52Q3.99 8.72 4.37 8.77L4.37 8.77L4.37 8.77Q4.75 8.82 5.15 8.79L5.15 8.79L5.15 8.79Q5.54 8.75 5.94 8.66L5.94 8.66L5.94 8.66Q6.33 8.57 6.66 8.50L6.66 8.50L6.66 10.30L6.66 10.30Q6.27 10.42 5.85 10.49L5.85 10.49L5.85 10.49Q5.49 10.56 5.05 10.61L5.05 10.61L5.05 10.61Q4.61 10.65 4.17 10.65L4.17 10.65L4.17 10.65Q3.63 10.65 2.97 10.49L2.97 10.49L2.97 10.49Q2.31 10.32 1.74 9.90L1.74 9.90L1.74 9.90Q1.18 9.48 0.80 8.75L0.80 8.75L0.80 8.75Q0.42 8.02 0.42 6.89L0.42 6.89L0.42 6.89Q0.42 5.75 0.80 5.02L0.80 5.02L0.80 5.02Q1.18 4.28 1.74 3.84L1.74 3.84L1.74 3.84Q2.31 3.40 2.97 3.23L2.97 3.23L2.97 3.23Q3.63 3.05 4.19 3.05ZM11.62 3.04L11.62 3.04L11.62 3.04Q12.25 3.04 13.01 3.21L13.01 3.21L13.01 3.21Q13.76 3.39 14.41 3.83L14.41 3.83L14.41 3.83Q15.06 4.27 15.50 5.01L15.50 5.01L15.50 5.01Q15.93 5.75 15.93 6.89L15.93 6.89L15.93 6.89Q15.93 8.02 15.50 8.75L15.50 8.75L15.50 8.75Q15.06 9.48 14.41 9.90L14.41 9.90L14.41 9.90Q13.76 10.32 13.01 10.49L13.01 10.49L13.01 10.49Q12.25 10.65 11.62 10.65L11.62 10.65L11.62 10.65Q10.99 10.65 10.25 10.49L10.25 10.49L10.25 10.49Q9.51 10.32 8.87 9.90L8.87 9.90L8.87 9.90Q8.23 9.48 7.80 8.75L7.80 8.75L7.80 8.75Q7.36 8.02 7.36 6.89L7.36 6.89L7.36 6.89Q7.36 6.13 7.57 5.56L7.57 5.56L7.57 5.56Q7.77 4.98 8.10 4.56L8.10 4.56L8.10 4.56Q8.43 4.13 8.87 3.84L8.87 3.84L8.87 3.84Q9.31 3.54 9.78 3.37L9.78 3.37L9.78 3.37Q10.25 3.19 10.72 3.12L10.72 3.12L10.72 3.12Q11.20 3.04 11.62 3.04ZM11.62 8.90L11.62 8.90L11.62 8.90Q12.39 8.90 12.84 8.46L12.84 8.46L12.84 8.46Q13.29 8.01 13.29 6.89L13.29 6.89L13.29 6.89Q13.29 5.75 12.84 5.27L12.84 5.27L12.84 5.27Q12.40 4.79 11.62 4.79L11.62 4.79L11.62 4.79Q10.84 4.79 10.42 5.27L10.42 5.27L10.42 5.27Q10.01 5.75 10.01 6.89L10.01 6.89L10.01 6.89Q10.01 8.01 10.42 8.46L10.42 8.46L10.42 8.46Q10.84 8.90 11.62 8.90ZM19.92 10.50L17.40 10.50L17.40 3.22L19.92 3.22L19.92 10.50ZM19.91 1.04L19.91 1.04L19.91 1.04Q19.91 1.30 19.81 1.53L19.81 1.53L19.81 1.53Q19.71 1.76 19.54 1.93L19.54 1.93L19.54 1.93Q19.38 2.10 19.15 2.20L19.15 2.20L19.15 2.20Q18.93 2.30 18.68 2.30L18.68 2.30L18.68 2.30Q18.14 2.30 17.78 1.93L17.78 1.93L17.78 1.93Q17.42 1.57 17.42 1.04L17.42 1.04L17.42 1.04Q17.42 0.78 17.51 0.56L17.51 0.56L17.51 0.56Q17.61 0.34 17.78 0.17L17.78 0.17L17.78 0.17Q17.95 0.01 18.18-0.08L18.18-0.08L18.18-0.08Q18.41-0.18 18.68-0.18L18.68-0.18L18.68-0.18Q19.18-0.18 19.54 0.17L19.54 0.17L19.54 0.17Q19.91 0.53 19.91 1.04ZM26.40 3.04L26.40 3.04L26.40 3.04Q26.96 3.04 27.52 3.15L27.52 3.15L27.52 3.15Q28.07 3.26 28.51 3.61L28.51 3.61L28.51 3.61Q28.95 3.96 29.23 4.61L29.23 4.61L29.23 4.61Q29.51 5.26 29.51 6.33L29.51 6.33L29.51 10.50L27.17 10.50L27.17 7.17L27.17 7.17Q27.17 6.13 26.84 5.59L26.84 5.59L26.84 5.59Q26.50 5.05 25.87 5.05L25.87 5.05L25.87 5.05Q25.42 5.05 25.12 5.25L25.12 5.25L25.12 5.25Q24.81 5.45 24.62 5.80L24.62 5.80L24.62 5.80Q24.43 6.15 24.35 6.62L24.35 6.62L24.35 6.62Q24.26 7.08 24.26 7.64L24.26 7.64L24.26 10.50L21.74 10.50L21.74 3.22L23.63 3.22L24.05 4.56L24.05 4.56Q24.05 4.56 24.18 4.33L24.18 4.33L24.18 4.33Q24.30 4.09 24.58 3.80L24.58 3.80L24.58 3.80Q24.86 3.51 25.31 3.28L25.31 3.28L25.31 3.28Q25.76 3.04 26.40 3.04ZM34.01 3.02L34.01 3.02L34.01 3.02Q34.68 3.02 35.37 3.21L35.37 3.21L35.37 3.21Q36.06 3.39 36.74 3.81L36.74 3.81L35.88 5.21L35.88 5.21Q35.77 5.14 35.53 5.03L35.53 5.03L35.53 5.03Q35.29 4.93 35.01 4.84L35.01 4.84L35.01 4.84Q34.72 4.75 34.41 4.69L34.41 4.69L34.41 4.69Q34.09 4.63 33.84 4.66L33.84 4.66L33.84 4.66Q33.59 4.69 33.43 4.82L33.43 4.82L33.43 4.82Q33.26 4.94 33.26 5.22L33.26 5.22L33.26 5.22Q33.26 5.43 33.59 5.57L33.59 5.57L33.59 5.57Q33.92 5.71 34.34 5.85L34.34 5.85L34.34 5.85Q34.76 5.98 35.21 6.16L35.21 6.16L35.21 6.16Q35.66 6.34 36.03 6.62L36.03 6.62L36.03 6.62Q36.40 6.90 36.64 7.31L36.64 7.31L36.64 7.31Q36.88 7.73 36.88 8.33L36.88 8.33L36.88 8.33Q36.88 8.95 36.63 9.39L36.63 9.39L36.63 9.39Q36.39 9.83 35.98 10.11L35.98 10.11L35.98 10.11Q35.57 10.39 35.03 10.53L35.03 10.53L35.03 10.53Q34.48 10.67 33.89 10.67L33.89 10.67L33.89 10.67Q33.08 10.67 32.23 10.44L32.23 10.44L32.23 10.44Q31.37 10.22 30.70 9.65L30.70 9.65L31.57 8.16L31.57 8.16Q31.72 8.33 32.00 8.48L32.00 8.48L32.00 8.48Q32.27 8.64 32.59 8.75L32.59 8.75L32.59 8.75Q32.90 8.86 33.24 8.92L33.24 8.92L33.24 8.92Q33.57 8.97 33.84 8.95L33.84 8.95L33.84 8.95Q34.10 8.92 34.28 8.81L34.28 8.81L34.28 8.81Q34.45 8.69 34.45 8.46L34.45 8.46L34.45 8.46Q34.45 8.13 34.20 7.94L34.20 7.94L34.20 7.94Q33.95 7.74 33.57 7.59L33.57 7.59L33.57 7.59Q33.19 7.45 32.75 7.31L32.75 7.31L32.75 7.31Q32.30 7.17 31.92 6.93L31.92 6.93L31.92 6.93Q31.54 6.69 31.29 6.31L31.29 6.31L31.29 6.31Q31.04 5.94 31.04 5.33L31.04 5.33L31.04 5.33Q31.04 4.73 31.29 4.30L31.29 4.30L31.29 4.30Q31.54 3.86 31.96 3.58L31.96 3.58L31.96 3.58Q32.38 3.29 32.91 3.16L32.91 3.16L32.91 3.16Q33.45 3.02 34.01 3.02ZM42.06 8.97L42.06 8.97L42.06 8.97Q42.25 8.97 42.45 8.96L42.45 8.96L42.45 8.96Q42.64 8.95 42.80 8.92L42.80 8.92L42.80 8.92Q42.98 8.89 43.15 8.85L43.15 8.85L43.12 10.43L43.12 10.43Q42.88 10.49 42.62 10.54L42.62 10.54L42.62 10.54Q42.38 10.58 42.06 10.62L42.06 10.62L42.06 10.62Q41.75 10.65 41.38 10.65L41.38 10.65L41.38 10.65Q40.68 10.61 40.12 10.36L40.12 10.36L40.12 10.36Q39.89 10.25 39.66 10.08L39.66 10.08L39.66 10.08Q39.44 9.91 39.26 9.66L39.26 9.66L39.26 9.66Q39.09 9.41 38.98 9.08L38.98 9.08L38.98 9.08Q38.88 8.75 38.88 8.30L38.88 8.30L38.88 5.53L37.45 5.53L37.45 3.75L38.92 3.75L39.37 1.46L41.38 1.46L41.38 3.75L43.18 3.75L43.18 5.53L41.41 5.53L41.41 8.33L41.41 8.33Q41.44 8.68 41.60 8.83L41.60 8.83L41.60 8.83Q41.76 8.97 42.06 8.97ZM51.20 5.77L51.20 10.50L49.20 10.50L48.94 9.39L48.94 9.39Q48.50 10.05 47.95 10.35L47.95 10.35L47.95 10.35Q47.40 10.65 46.63 10.65L46.63 10.65L46.63 10.65Q46.09 10.65 45.59 10.52L45.59 10.52L45.59 10.52Q45.09 10.39 44.72 10.13L44.72 10.13L44.72 10.13Q44.34 9.87 44.11 9.48L44.11 9.48L44.11 9.48Q43.89 9.09 43.89 8.57L43.89 8.57L43.89 8.57Q43.88 7.87 44.09 7.39L44.09 7.39L44.09 7.39Q44.31 6.92 44.70 6.61L44.70 6.61L44.70 6.61Q45.08 6.30 45.58 6.13L45.58 6.13L45.58 6.13Q46.09 5.96 46.64 5.90L46.64 5.90L46.64 5.90Q47.19 5.84 47.76 5.84L47.76 5.84L47.76 5.84Q48.33 5.85 48.83 5.88L48.83 5.88L48.83 5.84L48.83 5.84Q48.83 5.29 48.55 5.03L48.55 5.03L48.55 5.03Q48.26 4.77 47.83 4.70L47.83 4.70L47.83 4.70Q47.40 4.63 46.89 4.71L46.89 4.71L46.89 4.71Q46.38 4.79 45.93 4.91L45.93 4.91L45.93 4.91Q45.49 5.04 45.16 5.17L45.16 5.17L45.16 5.17Q44.84 5.29 44.80 5.32L44.80 5.32L44.80 3.58L44.80 3.58Q44.81 3.57 45.07 3.49L45.07 3.49L45.07 3.49Q45.33 3.40 45.72 3.30L45.72 3.30L45.72 3.30Q46.12 3.21 46.59 3.12L46.59 3.12L46.59 3.12Q47.07 3.04 47.53 3.04L47.53 3.04L47.53 3.04Q47.99 3.04 48.62 3.15L48.62 3.15L48.62 3.15Q49.25 3.26 49.83 3.56L49.83 3.56L49.83 3.56Q50.40 3.86 50.80 4.40L50.80 4.40L50.80 4.40Q51.20 4.93 51.20 5.77L51.20 5.77ZM48.82 7.52L48.82 7.25L48.82 7.25Q48.36 7.25 47.90 7.26L47.90 7.26L47.90 7.26Q47.45 7.27 47.08 7.34L47.08 7.34L47.08 7.34Q46.70 7.42 46.48 7.61L46.48 7.61L46.48 7.61Q46.26 7.80 46.26 8.16L46.26 8.16L46.26 8.16Q46.26 8.55 46.49 8.77L46.49 8.77L46.49 8.77Q46.73 8.99 47.03 8.99L47.03 8.99L47.03 8.99Q47.42 8.99 47.75 8.88L47.75 8.88L47.75 8.88Q48.08 8.76 48.31 8.56L48.31 8.56L48.31 8.56Q48.55 8.36 48.69 8.09L48.69 8.09L48.69 8.09Q48.82 7.83 48.82 7.52L48.82 7.52Z"></path></g><defs data-v-fde0c5aa=""><linearGradient data-v-fde0c5aa="" gradientTransform="rotate(25)" id="dba44103-7b5c-4190-a84a-f995bef55683" x1="0%" y1="0%" x2="100%" y2="0%"><stop data-v-fde0c5aa="" offset="0%" stop-color="#30223A" stop-opacity="1"></stop><stop data-v-fde0c5aa="" offset="100%" stop-color="#F13800" stop-opacity="1"></stop></linearGradient></defs><g data-v-fde0c5aa="" id="787aad4f-1e71-4660-a2ba-a84b32f77672" stroke="none" fill="url(#dba44103-7b5c-4190-a84a-f995bef55683)" transform="matrix(0.9618140900783834,0,0,0.9618140900783834,13.925903704946865,101.30671425761274)"><path d="M66.19 32.216c-.619-1.131-2.843-5.185-3.462-6.313a3.918 3.918 0 0 0-.948-1.136c-1.173-.97-2.996-1.444-5.234-1.444h-.002c-4.012 0-9.358 1.522-14.688 4.446-9.296 5.097-15.028 12.525-12.796 16.595l.002.007 3.46 6.312c2.231 4.068 11.577 3.231 20.875-1.869 9.297-5.1 15.026-12.531 12.793-16.6v.002zm-35.236 11.11c-1.223-2.23 2.821-8.662 11.94-13.663 4.772-2.617 9.874-4.18 13.65-4.18 2.219 0 3.782.532 4.291 1.458 1.223 2.23-2.821 8.662-11.94 13.664-4.771 2.615-9.875 4.177-13.65 4.177-2.22 0-3.784-.531-4.291-1.456zm3.463 6.317l-1.605-2.926c.464.094.954.162 1.478.196l2.165 3.95c-1.029-.24-1.732-.661-2.038-1.22zm3.799 1.438l-2.282-4.157a21.18 21.18 0 0 0 1.571-.131l2.329 4.245c-.571.04-1.122.059-1.618.043zm3.166-.218l-2.362-4.305c.481-.09.97-.193 1.471-.314l2.382 4.349c-.513.111-1.009.199-1.491.27zm2.94-.626l-2.397-4.376a30.64 30.64 0 0 0 1.401-.438l2.408 4.391c-.481.155-.951.298-1.412.423zm2.788-.907l-2.412-4.396c.517-.198 1.04-.417 1.565-.64l2.417 4.41c-.531.225-1.055.433-1.57.626zm2.889-1.221l-2.422-4.417a42.968 42.968 0 0 0 1.717-.86l2.422 4.421a44.2 44.2 0 0 1-1.717.856zm2.982-1.548l-2.423-4.421a48.59 48.59 0 0 0 1.65-.987l2.422 4.417c-.529.334-1.077.664-1.649.991zm2.855-1.784l-2.418-4.409c.473-.319.936-.645 1.38-.975l2.413 4.396c-.439.332-.898.661-1.375.988zm2.521-1.888l-2.407-4.392c.389-.312.76-.629 1.123-.947l2.4 4.375c-.352.32-.725.642-1.116.964zm2.194-1.993l-2.385-4.349c.37-.356.722-.713 1.055-1.068l2.362 4.304c-.321.366-.66.736-1.032 1.113zm2.01-2.325l-2.329-4.245c.346-.42.664-.839.953-1.254l2.281 4.157c-.253.428-.564.881-.905 1.342zm1.668-2.946l-2.166-3.947c.188-.342.349-.679.492-1.011.07-.067.141-.136.211-.201l1.53 2.787c.308.557.283 1.377-.067 2.372zM65.188 52.166a.999.999 0 1 0-1.64-1.144c-5.845 8.373-15.523 8.871-15.62 8.875a1 1 0 0 0 .04 1.999l.039-.001c.436-.017 10.753-.52 17.181-9.729zM63.985 63.522c-5.596 4.787-11.655 4.582-11.711 4.579a1.012 1.012 0 0 0-1.045.951 1 1 0 0 0 .951 1.047c.029.001.128.005.288.005 1.369 0 7.245-.296 12.817-5.063a1 1 0 1 0-1.3-1.519zM60.147 74.667c-4.676 1.743-8.814 1.167-8.856 1.161a.994.994 0 0 0-1.135.843.998.998 0 0 0 .84 1.135c.076.012.859.124 2.109.124 1.83 0 4.661-.24 7.74-1.388a1 1 0 1 0-.698-1.875zM68.617 28.202a.75.75 0 0 0-.761 1.293c.038.022 3.794 2.308 2.192 7.751a.75.75 0 0 0 1.438.424c1.93-6.553-2.821-9.439-2.869-9.468zM34.586 56.458c-4.419 0-5.994-3.235-6.06-3.375a.751.751 0 0 0-1.362.629c.08.173 2.013 4.246 7.422 4.246a.75.75 0 0 0 0-1.5z"></path></g><!----></svg>